<svg width="217" height="200" viewBox="0 0 217 200" fill="none" xmlns="http://www.w3.org/2000/svg">
<path fill-rule="evenodd" clip-rule="evenodd" d="M61.9152 6.83485L45.0451 13.116L21.7721 33.9218C-6.62931 59.3122 -6.11991 54.8316 16.7711 77.8655L35.0431 96.2527V145.841C35.0431 177.905 35.4485 196.185 36.1893 197.571C37.6068 200.22 176.158 201.009 178.783 198.383C179.778 197.389 180.112 184.385 180.112 146.685V96.3147L199.052 77.2631C220.852 55.3322 220.3 56.9745 209.137 47.267C205.051 43.7123 194.713 34.5475 186.166 26.8998L170.625 12.9953L152.499 6.4971L134.373 0L132.327 2.52819C131.201 3.91797 130.279 6.14827 130.279 7.48379C130.279 8.82042 128.985 12.5092 127.403 15.683C117.355 35.8486 84.9568 28.2574 84.8826 5.71971C84.8605 -0.853802 82.2194 -0.725344 61.9152 6.83485ZM78.524 16.8601C87.8494 43.1143 126.919 42.6514 137.499 16.1613C138.533 13.5734 139.563 11.4549 139.786 11.4549C140.257 11.4549 160.746 18.8867 164.055 20.2576C166.279 21.179 204.71 55.3842 205.394 57.0509C205.594 57.5403 199.995 63.8016 192.952 70.9653L180.145 83.9894L180.129 72.6773C180.114 62.6366 179.872 61.2368 177.97 60.2191C171.161 56.5747 171.253 55.6633 171.253 126.703V190.853H107.578H43.9023V126.109C43.9023 63.2324 43.8403 61.3332 41.7606 60.2191C36.6212 57.4695 35.0465 60.5192 35.0232 73.2709L35.0044 83.9894L29.3976 77.8987C26.3135 74.5488 20.5373 68.5013 16.5607 64.4605L9.3327 57.114L29.4873 38.9903L49.6431 20.8678L61.9994 16.2821C77.4896 10.5325 76.2616 10.4893 78.524 16.8601Z" fill="black"/>
</svg>
