<svg width="96" height="96" viewBox="0 0 96 96" fill="none" xmlns="http://www.w3.org/2000/svg">
<path fill-rule="evenodd" clip-rule="evenodd" d="M32.8129 18.1872L27.4144 20.1971L19.9671 26.855C10.8786 34.9799 11.0416 33.5461 18.3667 40.917L24.2138 46.8009V62.6691C24.2138 72.9298 24.3435 78.7793 24.5806 79.2226C25.0342 80.0703 69.3704 80.3229 70.2106 79.4827C70.5289 79.1645 70.6359 75.0032 70.6359 62.9391V46.8207L76.6966 40.7242C83.6727 33.7063 83.4958 34.2318 79.9238 31.1254C78.6162 29.9879 75.3082 27.0552 72.5732 24.6079L67.6 20.1585L61.7997 18.0791L55.9995 16L55.3446 16.809C54.9842 17.2538 54.6894 17.9674 54.6894 18.3948C54.6894 18.8225 54.2751 20.0029 53.7691 21.0185C50.5535 27.4716 40.1862 25.0424 40.1624 17.8303C40.1554 15.7268 39.3102 15.7679 32.8129 18.1872ZM38.1277 21.3952C41.1118 29.7966 53.6142 29.6484 56.9998 21.1716C57.3305 20.3435 57.66 19.6656 57.7316 19.6656C57.8822 19.6656 64.4387 22.0437 65.4976 22.4824C66.2091 22.7773 78.5071 33.723 78.7261 34.2563C78.7902 34.4129 76.9985 36.4165 74.7448 38.7089L70.6465 42.8766L70.6412 39.2568C70.6366 36.0437 70.559 35.5958 69.9505 35.2701C67.7715 34.1039 67.8009 33.8123 67.8009 56.5449V77.073H47.4248H27.0487V56.355C27.0487 36.2344 27.0289 35.6266 26.3634 35.2701C24.7188 34.3902 24.2149 35.3662 24.2074 39.4467L24.2014 42.8766L22.4072 40.9276C21.4203 39.8556 19.572 37.9204 18.2994 36.6273L15.9865 34.2765L22.4359 28.4769L28.8858 22.6777L32.8398 21.2103C37.7967 19.3704 37.4037 19.3566 38.1277 21.3952Z" fill="black"/>
</svg>
