<svg width="96" height="96" viewBox="0 0 96 96" fill="none" xmlns="http://www.w3.org/2000/svg">
<path fill-rule="evenodd" clip-rule="evenodd" d="M42.2478 16.5323C17.156 21.0433 7.28095 51.6994 24.9822 70.1317C39.6662 85.4222 64.7777 82.5333 75.5873 64.3102C89.51 40.8383 69.1716 11.6921 42.2478 16.5323ZM53.4704 18.6073L54.9853 18.9332L53.8884 20.7538C50.3799 26.5756 48.5058 35.0813 48.454 45.4149L48.4252 51.194L49.3306 52.316C49.8286 52.9328 50.8076 53.7253 51.506 54.0771C53.3439 55.0026 53.3683 55.1055 53.3709 61.9725C53.3736 68.8576 53.2895 69.3954 52.156 69.7131C51.1506 69.9949 44.4752 70.0025 43.7921 69.7225C43.3103 69.5251 43.2773 68.424 43.2773 52.4787V35.4461L44.3107 34.7462C46.9288 32.9736 47.3956 31.3407 47.3956 23.9575V17.9275L49.6754 18.1043C50.9291 18.2016 52.637 18.4279 53.4704 18.6073ZM45.33 23.9714C45.3226 30.3509 45.0876 31.3469 43.2456 32.7977C42.697 33.2301 42.0163 33.787 41.733 34.0355C41.2517 34.4583 41.2182 35.8426 41.2182 55.2053C41.2182 76.765 41.2138 76.8471 40.0795 76.8471C39.1958 76.8471 39.1591 75.9996 39.1591 55.6327C39.1591 32.888 39.2805 34.5077 37.4835 33.2713C35.204 31.7031 35.0431 31.2095 35.042 25.7837L35.0408 21.0506L35.79 20.7094C36.2021 20.5214 36.5993 20.3679 36.6725 20.3679C36.7457 20.3679 36.8058 22.3991 36.8058 24.8818C36.8058 29.9914 37.2135 31.1566 38.5707 29.9281C39.1146 29.4357 39.1591 29.0221 39.1591 24.4332V19.4707L39.9136 19.1839C40.3287 19.0262 40.792 18.897 40.9432 18.897C41.1038 18.897 41.2182 21.1542 41.2182 24.3244C41.2182 30.1502 41.3856 30.7727 42.7549 30.0399C43.2279 29.7869 43.2773 29.2183 43.2773 24.0346V18.3087H44.3069H45.3365L45.33 23.9714ZM57.9769 68.9865C58.3343 75.0274 58.3261 75.4257 57.831 75.9728C56.3988 77.5554 54.5802 76.1273 54.8718 73.6487C55.6086 67.3845 55.7216 54.9058 55.053 53.653C54.9365 53.435 53.9934 52.8393 52.9571 52.3292C50.5552 51.1473 50.3455 50.7063 50.3472 46.8425C50.3522 36.4383 52.9512 25.3324 56.4735 20.662L57.2501 19.6325L57.4239 41.1063C57.5198 52.917 57.7687 65.463 57.9769 68.9865ZM63.3157 22.3014C80.1859 32.5494 82.939 55.1252 69.0166 69.0509C65.987 72.0814 60.953 75.6013 60.7065 74.8615C60.6662 74.74 60.5306 73.3651 60.405 71.806L60.177 68.9712L61.4736 68.1508C71.2037 61.9948 75.0142 47.9571 69.8126 37.4293C68.8913 35.5649 68.5968 35.2087 67.9117 35.1298C66.678 34.988 66.5962 35.7549 67.6243 37.8255C72.3374 47.3164 69.977 58.6849 61.9496 65.1606L60.1917 66.5788L59.9637 65.3147C59.8384 64.6196 59.656 54.2133 59.5581 42.1897L59.3804 20.3282L60.4811 20.7882C61.0865 21.0412 62.362 21.7222 63.3157 22.3014ZM31.189 30.5697C23.1548 38.0788 21.5196 50.769 27.3134 60.6461C28.8645 63.2906 32.7078 67.2189 33.6179 67.09C35.0108 66.8926 34.6357 65.8475 32.3383 63.523C23.8355 54.9208 23.9067 40.2 32.4898 32.1782L33.2299 31.4866L33.6941 32.3841C33.9494 32.8777 34.754 33.7796 35.482 34.3882L36.8058 35.4949V55.5827C36.8058 66.6308 36.7357 75.6704 36.6501 75.6704C34.2448 75.6704 26.2444 69.1603 23.2734 64.7852C14.1773 51.3903 17.9249 31.6811 31.1664 23.2774L32.5404 22.4055L32.6231 25.7787L32.7057 29.1521L31.189 30.5697ZM61.9775 29.3607C61.3283 30.0102 61.3613 30.0958 62.8074 31.5149C64.1602 32.8427 65.0668 32.9748 65.4778 31.9043C65.909 30.7803 62.81 28.5282 61.9775 29.3607ZM52.6905 73.8466C52.6905 74.9012 52.8767 76.0599 53.1227 76.5356C53.7022 77.6557 53.3933 77.7261 47.9839 77.7049C43.3435 77.6866 42.5452 77.5496 42.9894 76.8471C43.1429 76.6044 43.2703 75.4131 43.2729 74.1996L43.2773 71.9934H47.9839H52.6905V73.8466Z" fill="black"/>
</svg>
