<svg width="201" height="200" viewBox="0 0 201 200" fill="none" xmlns="http://www.w3.org/2000/svg">
<path fill-rule="evenodd" clip-rule="evenodd" d="M82.2955 1.66336C3.88369 15.7602 -26.9758 111.561 28.3406 169.161C74.2281 216.944 152.702 207.916 186.481 150.969C229.99 77.6198 166.432 -13.4621 82.2955 1.66336ZM117.366 8.14781L122.1 9.16635L118.672 14.8556C107.708 33.0487 101.852 59.629 101.69 91.9217L101.6 109.981L104.429 113.487C105.986 115.415 109.045 117.892 111.227 118.991C116.971 121.883 117.047 122.205 117.055 143.664C117.064 165.18 116.801 166.861 113.259 167.853C110.117 168.734 89.2561 168.758 87.1216 167.883C85.6159 167.266 85.5129 163.825 85.5129 113.996V60.7689L88.7423 58.582C96.9237 53.0425 98.3825 47.9397 98.3825 24.8673V6.0234L105.507 6.57588C109.425 6.88015 114.762 7.58706 117.366 8.14781ZM91.9275 24.9105C91.9045 44.8464 91.17 47.959 85.4136 52.4928C83.6992 53.8441 81.5721 55.5843 80.6868 56.3611C79.1829 57.682 79.0781 62.0081 79.0781 122.516C79.0781 189.891 79.0643 190.147 75.5197 190.147C72.7582 190.147 72.6433 187.499 72.6433 123.852C72.6433 52.775 73.023 57.8365 67.4072 53.9728C60.2839 49.0723 59.781 47.5298 59.7774 30.574L59.7737 15.7832L62.115 14.7168C63.4029 14.1294 64.6439 13.6496 64.8728 13.6496C65.1017 13.6496 65.2892 19.997 65.2892 27.7556C65.2892 43.7231 66.5633 47.3643 70.8048 43.5255C72.5045 41.9866 72.6433 40.6941 72.6433 26.3537V10.8458L75.0012 9.94955C76.2983 9.45683 77.7461 9.05328 78.2186 9.05328C78.7205 9.05328 79.0781 16.1067 79.0781 26.0136C79.0781 44.2195 79.6012 46.1647 83.8803 43.8748C85.3585 43.0842 85.5129 41.3073 85.5129 25.1081V7.21476H88.7303H91.9477L91.9275 24.9105ZM131.449 165.583C132.566 184.461 132.54 185.705 130.993 187.415C126.517 192.361 120.834 187.898 121.745 180.152C124.048 160.576 124.401 121.581 122.312 117.665C121.948 116.984 119.001 115.123 115.762 113.529C108.256 109.835 107.601 108.457 107.606 96.3828C107.622 63.8696 115.744 29.1639 126.751 14.5688L129.178 11.3514L129.721 78.4573C130.021 115.365 130.798 154.572 131.449 165.583ZM148.133 19.6919C200.852 51.717 209.456 122.266 165.948 165.784C156.481 175.254 140.749 186.254 139.979 183.942C139.853 183.563 139.429 179.266 139.037 174.394L138.324 165.535L142.376 162.971C172.783 143.734 184.691 99.8659 168.436 66.9665C165.556 61.1403 164.636 60.0271 162.495 59.7807C158.64 59.3376 158.384 61.7341 161.597 68.2048C176.326 97.8637 168.949 133.39 143.864 153.627L138.37 158.059L137.658 154.109C137.266 151.936 136.696 119.417 136.39 81.8429L135.835 13.5255L139.275 14.9632C141.167 15.7538 145.153 17.8818 148.133 19.6919ZM47.7369 45.5304C22.6301 68.9963 17.52 108.653 35.6257 139.519C40.4729 147.783 52.483 160.059 55.3272 159.656C59.6799 159.039 58.5079 155.773 51.3285 148.509C24.7573 121.627 24.9798 75.625 51.8019 50.5569L54.1147 48.3957L55.5653 51.2003C56.3632 52.7429 58.8774 55.5613 61.1526 57.4633L65.2892 60.9215V123.696C65.2892 158.221 65.0704 186.47 64.8029 186.47C57.2862 186.47 32.2851 166.126 23.0006 152.454C-5.42471 110.595 6.28664 49.0033 47.6661 22.742L51.96 20.0173L52.2183 30.5584L52.4766 41.1005L47.7369 45.5304ZM143.951 41.7522C141.922 43.7819 142.025 44.0494 146.544 48.4839C150.772 52.6335 153.605 53.0462 154.889 49.701C156.237 46.1886 146.553 39.1507 143.951 41.7522ZM114.929 180.771C114.929 184.066 115.511 187.687 116.28 189.174C118.091 192.674 117.125 192.894 100.221 192.828C85.7197 192.771 83.2249 192.342 84.613 190.147C85.0928 189.389 85.4909 185.666 85.4991 181.874L85.5129 174.979H100.221H114.929V180.771Z" fill="black"/>
</svg>
