<svg width="96" height="96" viewBox="0 0 96 96" fill="none" xmlns="http://www.w3.org/2000/svg">
<path fill-rule="evenodd" clip-rule="evenodd" d="M70.1762 16.3341C70.0073 16.5413 69.6728 17.1851 69.4326 17.7648C69.1076 18.5497 68.5999 19.0313 67.4439 19.6508C65.3915 20.7507 65.392 21.3394 67.4477 22.5032C68.6382 23.1772 69.1491 23.6907 69.6238 24.6897C70.5067 26.5486 71.4119 26.5141 72.4559 24.5817C73.0196 23.5378 73.5892 22.9683 74.6331 22.4045C75.5958 21.8843 76.0467 21.4566 76.0467 21.0629C76.0467 20.6692 75.5958 20.2415 74.6331 19.7213C73.5886 19.1572 73.0202 18.5886 72.457 17.544C71.6719 16.0884 70.7675 15.6085 70.1762 16.3341ZM36.5652 18.8767C34.3142 20.0207 33.5291 22.6253 34.7785 24.8046C36.3789 27.596 40.1333 27.7237 41.9659 25.0492C44.4179 21.4711 40.4293 16.9127 36.5652 18.8767ZM57.1874 18.505C54.5799 19.2211 53.2864 22.7446 54.7995 25.0094C57.1636 28.5486 62.6667 26.9043 62.6667 22.6587C62.6667 19.851 59.9063 17.7585 57.1874 18.505ZM71.7906 20.4304L72.4231 21.1038L71.6963 21.7868L70.9692 22.4698L70.2421 21.7868L69.5153 21.1038L70.1478 20.4304C70.4957 20.0602 70.8653 19.7572 70.9692 19.7572C71.073 19.7572 71.4427 20.0602 71.7906 20.4304ZM39.8592 21.0794C40.6498 21.633 40.7424 23.3652 40.024 24.159C39.3566 24.8966 37.5621 24.8661 36.8739 24.1056C35.1278 22.1762 37.7011 19.5675 39.8592 21.0794ZM59.9437 21.208C61.2517 22.5159 60.2684 24.6897 58.3691 24.6897C57.3049 24.6897 56.1719 23.6423 56.1719 22.6587C56.1719 20.9474 58.7077 19.972 59.9437 21.208ZM46.7521 24.9485C46.645 25.2856 46.7872 25.9344 47.0895 26.4886C48.3635 28.8245 47.7133 34.3082 45.664 38.5112L44.7791 40.3267L43.1494 39.2212C38.7813 36.2583 35.0596 35.2193 33.8282 36.6189C32.9276 37.6428 15.7956 78.9235 16.0018 79.5732C16.3462 80.6586 15.6374 80.9325 55.7367 64.2217C61.3454 61.8843 61.5735 59.9836 57.0487 53.2784C56.22 52.0502 55.5858 51.0086 55.6395 50.963C57.698 49.219 61.6866 47.8228 64.8396 47.743C67.9578 47.6641 68.7513 47.1755 67.6119 46.0358C66.1104 44.5346 58.7446 46.1423 54.9904 48.7913L54.2445 49.3176L50.4012 45.5028L46.558 41.688L47.7197 39.2093C50.2779 33.7509 50.712 29.1016 48.9917 25.5848C48.3827 24.3392 47.0643 23.9646 46.7521 24.9485ZM24.3644 30.2584C24.2344 30.467 23.863 31.1599 23.5392 31.7982C23.1066 32.6509 22.5823 33.1323 21.5624 33.6133C19.3545 34.6549 19.4267 35.5103 21.8117 36.5652C22.8014 37.0031 23.202 37.411 23.7318 38.5202C24.7088 40.566 25.6419 40.6136 26.5549 38.6641C27.1053 37.4888 27.4773 37.1154 28.6376 36.5719C30.8598 35.5312 30.8795 34.6927 28.7081 33.589C27.7381 33.096 27.1962 32.5502 26.6246 31.4901C25.8368 30.0292 24.8445 29.4884 24.3644 30.2584ZM57.5393 30.6727C57.4256 30.7865 57.3324 31.0577 57.3324 31.2756C57.3324 33.1091 54.1409 38.8829 51.6375 41.578C50.3327 42.9829 50.2442 43.1762 50.5451 43.9604C51.614 46.7458 59.6739 35.3545 59.3089 31.5745C59.2195 30.6501 58.1213 30.0907 57.5393 30.6727ZM70.3857 33.23C65.9131 34.8792 59.7763 39.4562 59.9925 40.9818C60.1692 42.23 61.2645 42.0153 62.9751 40.3972C65.1489 38.3415 68.3614 36.3418 70.9402 35.4389C72.7504 34.8055 73.1627 34.5461 73.243 33.9908C73.4122 32.8236 72.2954 32.5262 70.3857 33.23ZM25.948 34.3573L26.5805 35.0307L25.8537 35.7137L25.1266 36.3967L24.4328 35.7447L23.7391 35.0931L24.3603 34.4191C25.1556 33.5567 25.1945 33.555 25.948 34.3573ZM37.3396 38.4811C38.6902 38.9575 42.5346 41.2534 43.0777 41.9076C43.3333 42.2158 43.1801 42.5999 42.3904 43.6343C40.3129 46.3553 41.748 47.5567 44.0311 45.0078L45.3957 43.4843L48.9195 47.0081L52.443 50.5319L51.5482 51.5511C50.8167 52.3844 50.7085 52.674 50.9565 53.1373C51.3471 53.8668 52.1679 53.861 52.8352 53.1237C53.7756 52.0847 55.32 53.7376 57.1729 57.766C61.7917 67.8061 41.5051 52.3931 36.1694 41.8081C34.3981 38.2936 34.6641 37.5369 37.3396 38.4811ZM74.8185 38.385C74.6496 38.5922 74.3116 39.2441 74.0673 39.834C73.7313 40.6449 73.2613 41.0897 72.1376 41.659C69.8402 42.8233 69.882 43.6212 72.2966 44.6892C73.2863 45.1271 73.6869 45.535 74.2167 46.6442C75.1658 48.632 76.0374 48.605 77.1367 46.5537C77.744 45.4204 78.2019 44.955 79.0389 44.6199C81.2762 43.7248 81.3363 42.8022 79.2269 41.7304C78.2213 41.2191 77.6871 40.6856 77.1095 39.6141C76.3145 38.1396 75.4127 37.6559 74.8185 38.385ZM36.9354 47.1233C38.7766 49.7203 45.6362 56.781 47.8297 58.337C49.6045 59.5959 49.4255 59.7175 47.1551 58.7951C45.2637 58.0265 44.4573 58.0358 44.1527 58.8294C43.7601 59.8527 44.9404 60.4803 50.0203 61.9499L53.2986 62.898L49.9837 64.2553L46.6688 65.6123L43.5599 64.5939C38.9829 63.0948 27.7378 57.137 27.7378 56.2111C27.7378 55.9718 29.5379 51.8169 29.7253 51.624C29.8292 51.5172 30.8932 52.1424 32.09 53.014C34.3844 54.6844 38.7334 57.3554 40.5923 58.236C42.507 59.143 43.5956 57.6108 41.8098 56.5222C41.3311 56.2303 39.5545 55.1689 37.8618 54.1636C34.7033 52.2872 30.7844 49.4778 30.7844 49.0896C30.7844 48.9694 31.434 47.2936 32.2281 45.3653L33.6719 41.8589L34.4625 43.3041C34.8971 44.0991 36.0101 45.8176 36.9354 47.1233ZM76.4329 42.4813L77.0654 43.1547L76.3386 43.8377L75.6115 44.5207L74.8908 43.8435L74.17 43.1663L74.8182 42.5178C75.6518 41.6839 75.6831 41.6831 76.4329 42.4813ZM68.2537 56.8486C64.622 59.3191 66.2282 64.7219 70.5963 64.7274C74.3148 64.7323 76.1372 60.1875 73.4818 57.5318C72.1707 56.2207 69.6592 55.8925 68.2537 56.8486ZM35.1365 63.342C36.7323 64.1657 39.2594 65.3152 40.7525 65.8964L43.4671 66.9531L40.5532 68.1624C36.8788 69.6874 36.6212 69.6476 30.6889 66.6406C29.4697 66.0226 29.0557 65.9295 28.7304 66.1993C27.5095 67.2125 28.8709 68.3823 33.5712 70.3588L34.4573 70.7313L31.5512 71.9375C27.9386 73.4369 28.0524 73.4546 23.1878 70.6257L21.9744 69.9201L22.8542 67.8325C23.8894 65.3762 24.1273 65.0648 24.6043 65.5418C25.5281 66.4656 27.1787 65.563 26.5871 64.4579C26.411 64.1285 26.1734 63.8549 26.0594 63.8497C25.0407 63.8045 24.8283 63.0553 25.435 61.647C25.7701 60.8688 26.2227 59.8083 26.4406 59.2901L26.837 58.348L29.5362 60.0961C31.0205 61.0574 33.5407 62.5183 35.1365 63.342ZM71.8654 58.8891C72.3508 59.282 72.5359 59.7332 72.5359 60.5224C72.5359 62.5162 70.4719 63.3881 69.0702 61.9861C67.1808 60.097 69.7889 57.2078 71.8654 58.8891ZM53.3514 67.9811C53.186 68.1874 52.767 68.9185 52.4209 69.6059C51.9427 70.5546 51.4852 70.9864 50.5202 71.4001C48.2074 72.3915 48.2182 73.2216 50.5591 74.4022C51.8099 75.033 52.1369 75.3707 52.5541 76.4631C53.3665 78.591 54.3057 78.5817 55.3966 76.435C55.8893 75.4656 56.4362 74.9224 57.4955 74.3503C59.4798 73.2788 59.4781 72.4513 57.4897 71.4219C56.3625 70.8387 55.8913 70.3631 55.3136 69.2272C54.559 67.7431 53.8855 67.3155 53.3514 67.9811ZM54.6814 73.6212L54.0248 74.3201L53.2995 73.5948L52.5741 72.8694L53.2574 72.142L53.9404 71.4149L54.639 72.1687L55.3377 72.9225L54.6814 73.6212ZM25.2113 74.2847C25.3378 74.4045 23.9901 75.0983 22.2167 75.8265C20.4434 76.5548 19.0513 76.9999 19.1229 76.8153C19.1949 76.6311 19.6797 75.4668 20.2008 74.2278L21.1481 71.9758L23.0648 73.0214C24.1189 73.5965 25.0848 74.1652 25.2113 74.2847Z" fill="black"/>
</svg>
