<svg width="203" height="200" viewBox="0 0 203 200" fill="none" xmlns="http://www.w3.org/2000/svg">
<path fill-rule="evenodd" clip-rule="evenodd" d="M169.845 1.04419C169.318 1.69157 168.272 3.70353 167.521 5.51511C166.506 7.96773 164.919 9.47285 161.307 11.4086C154.893 14.8459 154.895 16.6856 161.319 20.3224C165.039 22.4286 166.636 24.0335 168.119 27.1553C170.878 32.9645 173.707 32.8566 176.969 26.818C178.731 23.5557 180.511 21.7758 183.773 20.0141C186.782 18.3884 188.191 17.0519 188.191 15.8215C188.191 14.5912 186.782 13.2547 183.773 11.629C180.509 9.86635 178.733 8.08923 176.973 4.82512C174.519 0.276216 171.693 -1.22346 169.845 1.04419ZM64.8108 8.98957C57.7767 12.5647 55.3231 20.7041 59.2274 27.5143C64.2287 36.2376 75.9614 36.6366 81.6881 28.2787C89.3506 17.0973 76.8862 2.85214 64.8108 8.98957ZM129.255 7.82809C121.107 10.0658 117.065 21.0768 121.793 28.1544C129.181 39.2143 146.378 34.0761 146.378 20.8084C146.378 12.0343 137.752 5.49516 129.255 7.82809ZM174.89 13.8449L176.867 15.9494L174.596 18.0838L172.323 20.2181L170.051 18.0838L167.78 15.9494L169.756 13.8449C170.844 12.688 171.999 11.7414 172.323 11.7414C172.648 11.7414 173.803 12.688 174.89 13.8449ZM75.1045 15.8732C77.5753 17.6032 77.8645 23.0162 75.6195 25.4969C73.5341 27.8017 67.9262 27.7065 65.7755 25.3301C60.319 19.3005 68.3605 11.1484 75.1045 15.8732ZM137.869 16.2749C141.956 20.3623 138.883 27.1553 132.948 27.1553C129.622 27.1553 126.082 23.8821 126.082 20.8084C126.082 15.4607 134.006 12.4124 137.869 16.2749ZM96.6449 27.964C96.3104 29.0176 96.7547 31.045 97.6994 32.7768C101.681 40.0766 99.6488 57.2132 93.2448 70.3476L90.4794 76.0208L85.3865 72.5663C71.7362 63.3071 60.106 60.0602 56.2579 64.4341C53.4435 67.6339 -0.0942091 196.636 0.550453 198.666C1.6267 202.058 -0.588362 202.914 124.722 150.693C142.249 143.388 142.962 137.449 128.822 116.495C126.232 112.657 124.25 109.402 124.418 109.259C130.851 103.809 143.315 99.4462 153.168 99.1969C162.913 98.9503 165.393 97.4234 161.832 93.8619C157.14 89.1706 134.121 94.1946 122.39 102.473L120.059 104.118L108.048 92.1963L96.0384 80.275L99.6688 72.5291C107.663 55.4714 109.02 40.9425 103.644 29.9524C101.741 26.06 97.6206 24.8894 96.6449 27.964ZM26.6833 44.5575C26.2771 45.2094 25.1165 47.3746 24.1046 49.3693C22.7527 52.0341 21.1143 53.5383 17.9273 55.0416C11.0273 58.2967 11.2531 60.9696 18.7062 64.2664C21.7989 65.6346 23.0511 66.9094 24.7067 70.3757C27.7595 76.7688 30.6755 76.9175 33.5288 70.8254C35.2488 67.1524 36.4112 65.9855 40.0371 64.2872C46.9815 61.0349 47.0432 58.4145 40.2575 54.9655C37.2264 53.425 35.5327 51.7195 33.7465 48.4064C31.2848 43.8412 28.1839 42.1511 26.6833 44.5575ZM130.355 45.8523C130 46.2077 129.709 47.0554 129.709 47.7364C129.709 53.4658 119.735 71.5091 111.912 79.9314C107.834 84.3216 107.558 84.9255 108.498 87.3763C111.838 96.0806 137.026 60.4827 135.885 48.6703C135.606 45.7815 132.174 44.0334 130.355 45.8523ZM170.5 53.8439C156.523 58.9976 137.346 73.3007 138.021 78.0681C138.573 81.9687 141.996 81.2978 147.342 76.2411C154.135 69.8172 164.174 63.5682 172.233 60.7466C177.89 58.7673 179.178 57.9567 179.429 56.2212C179.958 52.5736 176.468 51.6442 170.5 53.8439ZM31.632 57.3664L33.6086 59.4709L31.3374 61.6052L29.0652 63.7396L26.8973 61.7022L24.7294 59.6658L26.6706 57.5595C29.1558 54.8648 29.2773 54.8594 31.632 57.3664ZM67.2308 70.2533C71.4515 71.7421 83.4652 78.9168 85.1625 80.9614C85.9613 81.9243 85.4826 83.1248 83.0146 86.3572C76.5226 94.8602 81.0071 98.6148 88.1419 90.6495L92.4061 85.8884L103.418 96.9002L114.429 107.912L111.633 111.097C109.347 113.701 109.009 114.606 109.784 116.054C111.004 118.334 113.569 118.316 115.655 116.012C118.593 112.765 123.42 117.93 129.21 130.519C143.644 161.894 80.2482 113.729 63.5741 80.6504C58.0387 69.6676 58.8701 67.3029 67.2308 70.2533ZM184.352 69.9532C183.825 70.6006 182.768 72.6379 182.005 74.4812C180.955 77.0154 179.486 78.4054 175.975 80.1843C168.795 83.8229 168.926 86.3163 176.471 89.6539C179.564 91.0221 180.816 92.2969 182.472 95.7632C185.438 101.975 188.162 101.891 191.597 95.4803C193.495 91.9388 194.925 90.4844 197.541 89.4372C204.533 86.64 204.721 83.7567 198.129 80.4074C194.986 78.8098 193.317 77.1424 191.512 73.794C189.027 69.1861 186.209 67.6746 184.352 69.9532ZM65.9678 97.2602C71.7217 105.376 93.1578 127.441 100.012 132.303C105.559 136.237 104.999 136.617 97.9044 133.735C91.9936 131.333 89.4739 131.362 88.5218 133.842C87.2951 137.04 90.9835 139.001 106.858 143.593L117.103 146.556L106.744 150.798L96.3847 155.039L86.6695 151.856C72.3663 147.171 37.2255 128.553 37.2255 125.66C37.2255 124.912 42.8506 111.928 43.4363 111.325C43.7609 110.991 47.0858 112.945 50.8259 115.669C57.9961 120.889 71.5866 129.236 77.3958 131.988C83.3791 134.822 86.781 130.034 81.2003 126.632C79.7042 125.72 74.1525 122.403 68.8628 119.261C58.9925 113.398 46.7458 104.618 46.7458 103.405C46.7458 103.029 48.7759 97.7924 51.2575 91.7665L55.7692 80.8091L58.24 85.3253C59.5982 87.8097 63.0763 93.18 65.9678 97.2602ZM189.397 82.7539L191.374 84.8584L189.103 86.9927L186.83 89.1271L184.578 87.0109L182.326 84.8946L184.352 82.8682C186.957 80.2623 187.054 80.2596 189.397 82.7539ZM163.838 127.652C152.488 135.372 157.508 152.256 171.158 152.273C182.778 152.289 188.473 138.086 180.175 129.787C176.078 125.69 168.23 124.664 163.838 127.652ZM60.3462 147.944C65.3331 150.518 73.2304 154.11 77.8963 155.926L86.3793 159.228L77.2734 163.008C65.7909 167.773 64.9858 167.649 46.4475 158.252C42.6375 156.321 41.3437 156.03 40.3273 156.873C36.5119 160.039 40.7661 163.695 55.4546 169.871L58.2237 171.035L49.1422 174.805C37.8529 179.49 38.2083 179.546 23.0066 170.705L19.2148 168.5L21.9639 161.977C25.199 154.301 25.9425 153.328 27.4331 154.818C30.32 157.705 35.4782 154.884 33.6295 151.431C33.0791 150.402 32.3365 149.547 31.9802 149.53C28.7968 149.389 28.1331 147.048 30.029 142.647C31.0762 140.215 32.4907 136.901 33.1716 135.282L34.4102 132.338L42.8452 137.8C47.4838 140.804 55.3594 145.37 60.3462 147.944ZM175.124 134.029C176.641 135.256 177.22 136.666 177.22 139.132C177.22 145.363 170.769 148.088 166.389 143.707C160.485 137.803 168.635 128.774 175.124 134.029ZM117.268 162.441C116.751 163.085 115.442 165.37 114.36 167.518C112.866 170.483 111.436 171.832 108.42 173.125C101.193 176.224 101.226 178.818 108.542 182.507C112.45 184.478 113.472 185.534 114.776 188.947C117.315 195.597 120.25 195.568 123.659 188.859C125.199 185.83 126.908 184.133 130.218 182.345C136.419 178.996 136.414 176.41 130.2 173.193C126.677 171.371 125.205 169.885 123.4 166.335C121.041 161.697 118.937 160.361 117.268 162.441ZM121.424 180.066L119.372 182.25L117.105 179.984L114.839 177.717L116.974 175.444L119.108 173.172L121.292 175.527L123.475 177.883L121.424 180.066ZM29.3299 182.14C29.7253 182.514 25.5136 184.682 19.9719 186.958C14.4302 189.234 10.0798 190.625 10.3038 190.048C10.5287 189.472 12.0437 185.834 13.6722 181.962L16.6325 174.924L22.6222 178.192C25.9162 179.989 28.9346 181.766 29.3299 182.14Z" fill="black"/>
</svg>
