<svg width="96" height="96" viewBox="0 0 96 96" fill="none" xmlns="http://www.w3.org/2000/svg">
<path fill-rule="evenodd" clip-rule="evenodd" d="M69.5267 16.152C66.5773 16.689 64.8991 18.3854 63.4864 22.2581C62.9866 23.6276 62.5353 24.7958 62.4831 24.8539C62.4312 24.9119 61.9534 24.5345 61.4216 24.0152L60.4545 23.071V20.8216C60.4545 17.9033 60.8681 18.0694 53.6028 18.0694C46.7236 18.0694 46.6112 18.099 46.6112 19.9183C46.6112 20.9993 46.6053 21.0071 46.0713 20.6333C45.4707 20.2125 43.6601 20.1277 42.9852 20.4888C42.5961 20.6972 42.5339 20.5806 42.4137 19.4178C41.945 14.876 36.6348 14.9202 36.031 19.4707C35.8833 20.5848 35.8153 20.6992 35.425 20.4903C32.1546 18.7402 29.1895 23.2932 31.7881 26.075L32.5024 26.8398L31.7243 27.5375L30.9464 28.2353L30.4908 27.3418C30.2404 26.8502 29.9956 26.4038 29.947 26.3497C29.8681 26.2617 27.9106 27.0576 27.9106 27.1776C27.9106 27.2043 28.5116 28.3322 29.2463 29.684C31.1336 33.1567 30.9877 33.2686 28.0869 30.5736L26.1226 28.7489L25.4379 29.4047C24.5049 30.2986 24.4964 30.2787 26.7314 32.3744L28.7096 34.2292L28.2899 35.0408C27.3476 36.863 27.8154 39.3633 29.5052 41.5397L30.5821 42.9267V51.8702V60.8137H31.675H32.7679V52.7889V44.7642L33.8479 45.3971C35.0481 46.1004 35.0947 46.0909 37.0913 44.7282L38.1361 44.0154L39.6817 45.0223L41.2276 46.0295L42.1585 45.519C42.6707 45.2382 43.4231 44.797 43.8304 44.5383L44.5711 44.0679L45.8695 44.9424C47.493 46.0356 47.901 46.0334 49.5746 44.922L50.9223 44.0273L52.4472 45.0131C54.2925 46.2058 53.9882 46.2053 55.824 45.0187L57.3405 44.0387L58.4113 44.7151L59.482 45.3917L59.4825 61.603L59.483 77.8142H47.7041H35.9251V78.9071V80L51.4078 79.9947C69.6731 79.9883 69.0089 80.0911 70.5596 77.0329L71.1405 75.8873V58.7721V41.6567L72.9402 36.8456C73.9301 34.1993 75.364 30.3948 76.1268 28.3912C79.0485 20.7164 75.9558 14.9814 69.5267 16.152ZM40.0538 21.13C40.2267 24.9719 40.8222 25.4916 42.8081 23.5339C44.0239 22.3351 44.9594 22.1092 45.3883 22.9107C45.8044 23.6881 45.7208 23.8309 43.5146 26.1189L41.3896 28.3227L41.2681 33.4372C41.1263 39.4066 41.0454 39.5511 39.5589 36.4815C37.9858 33.2332 36.3812 31.6699 34.6207 31.6699C34.0699 31.6699 32.7679 30.481 32.7679 29.9781C32.7679 29.2315 33.7167 28.6416 34.4645 28.9233C36.848 29.8212 36.9004 28.2134 34.567 25.7903C32.9148 24.075 32.7455 23.7656 33.0348 22.9874C33.3833 22.0497 34.4397 22.2678 35.6822 23.5339C37.6186 25.5069 38.3538 24.8352 38.3538 21.0916C38.3538 18.4089 38.4077 18.2559 39.3162 18.3618C39.9261 18.433 39.9336 18.4609 40.0538 21.13ZM72.7799 18.8274C75.8764 20.3264 75.9869 22.4706 73.3285 29.4841C72.2397 32.356 70.6951 36.4677 69.8959 38.6211C68.5713 42.19 68.3709 42.5752 67.6321 42.973L66.8217 43.4095L65.4791 42.5184C63.8179 41.4158 63.561 41.4143 61.9877 42.498C60.6218 43.4386 60.292 43.4425 59.1564 42.5308L58.4654 41.9763L60.0999 37.6123C60.9987 35.2123 62.7049 30.6452 63.8913 27.4632C67.3098 18.2936 68.7622 16.8825 72.7799 18.8274ZM58.2687 21.4695V22.441H53.5328H48.7969V21.4695V20.4981H53.5328H58.2687V21.4695ZM55.1114 26.2054L53.5469 27.784H49.2968H45.0466L46.6112 26.2054L48.1757 24.6268H52.4258H56.676L55.1114 26.2054ZM60.4734 26.1039C61.6703 27.3493 61.6999 27.0396 59.936 31.7218C54.7731 45.4262 55.1114 45.1256 55.1114 36.0101V29.4214L57.2198 27.267C59.6938 24.7387 59.298 24.8803 60.4734 26.1039ZM67.6797 25.6376C67.3125 25.7719 67.0118 26.03 67.0118 26.2115C67.0118 26.6392 68.7177 31.9793 68.928 32.2102C69.1527 32.457 70.8977 31.8887 70.8977 31.5688C70.8977 30.8747 68.879 25.3578 68.631 25.3746C68.4751 25.385 68.0469 25.5035 67.6797 25.6376ZM52.9159 35.6164L52.9062 41.263L52.4234 40.2947C50.8997 37.2397 46.9793 35.5219 44.0004 36.6041L43.4539 36.8028V33.3862V29.9698H48.1898H52.9257L52.9159 35.6164ZM64.401 33.1346C63.703 33.4151 63.6858 33.2657 64.8299 36.8446L65.8053 39.8952L66.8647 39.5341L67.9243 39.1732L67.1209 36.6964C65.7628 32.5092 65.8084 32.5689 64.401 33.1346ZM35.7009 34.5158C36.2226 34.9546 36.9609 36.1835 37.9052 38.1847C39.2511 41.0364 39.7274 42.6124 39.0338 41.9188C38.5417 41.4267 37.7959 41.5899 36.4779 42.4774C34.9415 43.512 34.9451 43.512 33.5613 42.5599L32.4461 41.7925L33.1538 41.1635C33.5431 40.8174 34.1723 40.3095 34.5524 40.0346L35.2436 39.5348L34.5913 38.7596C33.7726 37.7864 33.7927 37.7845 32.285 38.9765C30.8733 40.0924 30.6615 40.0176 30.1209 38.2136C29.1846 35.0887 33.2108 32.4206 35.7009 34.5158ZM47.6072 38.7547C48.7382 39.1448 49.5938 39.809 50.1257 40.7093L50.573 41.4668L49.8762 42.0222C48.0652 43.4665 47.7803 43.5059 46.2928 42.5184C44.6396 41.4211 44.4713 41.4194 42.898 42.482L41.6324 43.3364L41.5574 42.6187C41.2941 40.0968 44.8723 37.8117 47.6072 38.7547ZM65.0471 44.9364C66.5594 45.9549 67.1702 46.0222 68.2067 45.2841L68.9548 44.7515L68.9538 60.1293C68.9528 78.9562 69.2736 77.8142 63.9838 77.8142H61.6688V61.575V45.3361L62.5795 44.7105C63.7247 43.9241 63.5155 43.9049 65.0471 44.9364ZM24.2676 59.7162C24.2676 60.6655 24.3426 60.8234 24.8568 60.9523C25.6806 61.159 26.2069 61.8167 26.3742 62.8489L26.5172 63.73L25.6432 63.3647C21.4367 61.6071 17.7362 64.7163 18.0148 69.7742C18.4126 76.9926 22.204 81.3957 26.4534 79.5747C27.5152 79.1196 27.5739 79.1189 28.5177 79.5468C32.7013 81.4436 36.4725 77.1305 37.0586 69.7793C37.4411 64.9781 33.1501 61.4077 29.3556 63.3701L28.6392 63.7404L28.6338 62.945C28.6224 61.2474 27.5416 59.6848 25.9059 59.0014C24.4599 58.3974 24.2676 58.4812 24.2676 59.7162ZM25.112 65.5631C25.5502 65.771 26.1595 66.2082 26.4662 66.5346C27.1851 67.2999 27.9198 67.2875 28.6576 66.4979C31.6723 63.271 35.4243 65.748 34.7287 70.5057C33.8688 76.3874 31.912 78.6825 28.9163 77.3231C27.5895 76.7211 27.1567 76.7218 25.9676 77.3285C23.6483 78.5117 22.2931 77.4259 20.8213 73.2051C18.9428 67.8186 21.2408 63.7261 25.112 65.5631Z" fill="black"/>
</svg>
