<svg width="186" height="200" viewBox="0 0 186 200" fill="none" xmlns="http://www.w3.org/2000/svg">
<path fill-rule="evenodd" clip-rule="evenodd" d="M161.021 0.474994C151.804 2.15304 146.56 7.45433 142.145 19.5566C140.583 23.8363 139.173 27.4869 139.01 27.6683C138.847 27.8497 137.354 26.6703 135.692 25.0476L132.67 22.0968V15.0674C132.67 5.94781 133.963 6.46693 111.259 6.46693C89.7613 6.46693 89.4099 6.55952 89.4099 12.2448C89.4099 15.6229 89.3917 15.6472 87.7227 14.4792C85.8458 13.1639 80.1879 12.8991 78.0787 14.0276C76.8629 14.6788 76.6686 14.3145 76.2929 10.6806C74.8281 -3.51255 58.2336 -3.37442 56.3468 10.8461C55.8854 14.3274 55.6729 14.6849 54.4533 14.0322C44.2332 8.56316 34.9671 22.7913 43.0879 31.4843L45.32 33.8743L42.8883 36.0547L40.4574 38.2352L39.0336 35.443C38.2511 33.9069 37.4861 32.5119 37.3343 32.3427C37.0877 32.0679 30.9705 34.555 30.9705 34.93C30.9705 35.0134 32.8489 38.538 35.1447 42.7624C41.0426 53.6146 40.5864 53.9645 31.5215 45.5424L25.3831 39.8404L23.2436 41.8896C20.3277 44.6833 20.3011 44.621 27.2858 51.17L33.4674 56.9662L32.156 59.5026C29.2112 65.197 30.673 73.0104 35.9538 79.8114L39.319 84.1458V112.094V140.043H42.7343H46.1496V114.965V89.888L49.5246 91.8659C53.2754 94.0638 53.4211 94.0342 59.6604 89.7757L62.9255 87.5482L67.7554 90.6948L72.5862 93.8422L75.4952 92.2469C77.0959 91.3695 79.4471 89.9905 80.7199 89.1822L83.0347 87.7121L87.092 90.4451C92.1657 93.8612 93.4407 93.8543 98.6706 90.3814L102.882 87.5854L107.648 90.666C113.414 94.3932 112.463 94.3917 118.2 90.6834L122.939 87.621L126.285 89.7347L129.631 91.8492L129.633 142.509L129.634 193.169H92.8252H56.0159V196.585V200L104.399 199.983C161.479 199.964 159.403 200.285 164.249 190.728L166.064 187.148V133.663V80.1772L171.688 65.1424C174.782 56.8728 179.262 44.9838 181.646 38.7224C190.776 14.7388 181.112 -3.18316 161.021 0.474994ZM68.9182 16.0313C69.4585 28.0371 71.3195 29.6613 77.5254 23.5434C81.3248 19.7972 84.2482 19.0914 85.5886 21.5959C86.8886 24.0253 86.6276 24.4716 79.7332 31.6217L73.0924 38.5084L72.7129 54.4912C72.2697 73.1455 72.017 73.5971 67.3714 64.0047C62.4557 53.8537 57.4413 48.9683 51.9396 48.9683C50.2183 48.9683 46.1496 45.2532 46.1496 43.6814C46.1496 41.3484 49.1148 39.5049 51.4516 40.3853C58.9 43.1912 59.0639 38.1669 51.7719 30.5948C46.6087 25.2343 46.0797 24.2674 46.9836 21.8357C48.0727 18.9054 51.3742 19.587 55.257 23.5434C61.3081 29.7091 63.6055 27.6099 63.6055 15.9113C63.6055 7.52795 63.774 7.04981 66.6132 7.38071C68.5189 7.60308 68.5425 7.69036 68.9182 16.0313ZM171.187 8.83562C180.864 13.5199 181.209 20.2207 172.902 42.1377C169.499 51.1124 164.672 63.9614 162.175 70.6911C158.035 81.8439 157.409 83.0476 155.1 84.2908L152.568 85.6546L148.372 82.87C143.181 79.4244 142.378 79.4198 137.462 82.8062C133.193 85.7457 132.162 85.7578 128.614 82.9087L126.454 81.176L131.562 67.5384C134.371 60.0384 139.703 45.7663 143.41 35.8225C154.093 7.16744 158.632 2.75792 171.187 8.83562ZM125.84 17.0923V20.1281H111.04H96.2405V17.0923V14.0565H111.04H125.84V17.0923ZM115.973 31.8919L111.084 36.8251H97.8024H84.5207L89.4099 31.8919L94.2991 26.9587H107.581H120.862L115.973 31.8919ZM132.729 31.5746C136.47 35.4665 136.562 34.4989 131.05 49.1307C114.916 91.9569 115.973 91.0174 115.973 62.5316V41.9419L122.562 35.2093C130.293 27.3085 129.056 27.751 132.729 31.5746ZM155.249 30.1174C154.102 30.5371 153.162 31.3439 153.162 31.9108C153.162 33.2474 158.493 49.9352 159.15 50.657C159.852 51.4281 165.305 49.6521 165.305 48.6526C165.305 46.4835 158.997 29.2431 158.222 29.2955C157.735 29.3281 156.397 29.6985 155.249 30.1174ZM109.112 61.3013L109.082 78.947L107.573 75.921C102.811 66.3741 90.5605 61.0061 81.2511 64.388L79.5435 65.0088V54.3318V43.6556H94.3431H109.143L109.112 61.3013ZM145.003 53.5456C142.822 54.4221 142.768 53.9554 146.344 65.1393L149.391 74.6725L152.702 73.544L156.013 72.4162L153.503 64.6764C149.259 51.5913 149.401 51.778 145.003 53.5456ZM55.3154 57.8617C56.9457 59.2332 59.2529 63.0735 62.2037 69.3272C66.4098 78.2389 67.8981 83.1637 65.7306 80.9961C64.1929 79.4585 61.8622 79.9685 57.7433 82.7417C52.9422 85.9749 52.9536 85.9749 48.6291 82.9998L45.1439 80.6015L47.3555 78.6358C48.5721 77.5543 50.5386 75.9673 51.7263 75.1082L53.8863 73.5463L51.8478 71.1237C49.2893 68.0826 49.3523 68.0765 44.6408 71.8014C40.229 75.2888 39.5672 75.0551 37.8777 69.4175C34.952 59.6521 47.5339 51.3142 55.3154 57.8617ZM92.5224 71.1085C96.0568 72.3274 98.7306 74.4031 100.393 77.2166L101.791 79.5837L99.6133 81.3195C93.9538 85.833 93.0635 85.9559 88.4149 82.87C83.2487 79.441 82.7228 79.4357 77.8063 82.7561L73.8513 85.4262L73.6168 83.1834C72.7941 75.3025 83.9758 68.1615 92.5224 71.1085ZM147.022 90.4261C151.748 93.6092 153.657 93.8194 156.896 91.513L159.234 89.8486L159.231 137.904C159.228 196.738 160.23 193.169 143.699 193.169H136.465V142.422V91.6754L139.311 89.7203C142.89 87.2628 142.236 87.2029 147.022 90.4261ZM19.5862 136.613C19.5862 139.58 19.8207 140.073 21.4274 140.476C24.0018 141.122 25.6464 143.177 26.1694 146.403L26.6164 149.156L23.8849 148.015C10.7398 142.522 -0.824336 152.238 0.0461836 168.044C1.28935 190.602 13.1374 204.362 26.4168 198.671C29.7349 197.249 29.9186 197.247 32.8679 198.584C45.9416 204.511 57.7266 191.033 59.558 168.06C60.7533 153.056 47.3441 141.899 35.4863 148.031L33.2474 149.189L33.2307 146.703C33.195 141.398 29.8176 136.515 24.7061 134.379C20.1873 132.492 19.5862 132.754 19.5862 136.613ZM22.2251 154.885C23.5942 155.534 25.4984 156.901 26.457 157.921C28.7035 160.312 30.9993 160.273 33.305 157.806C42.7259 147.722 54.451 155.462 52.2773 170.33C49.5899 188.711 43.475 195.883 34.1133 191.635C29.9672 189.753 28.6147 189.756 24.8989 191.652C17.6509 195.349 13.4159 191.956 8.81665 178.766C2.94614 161.933 10.1274 149.144 22.2251 154.885Z" fill="black"/>
</svg>
