<svg width="96" height="96" viewBox="0 0 96 96" fill="none" xmlns="http://www.w3.org/2000/svg">
<path fill-rule="evenodd" clip-rule="evenodd" d="M22.6273 16.195C21.1938 16.7074 20.9027 19.7567 22.1749 20.9357C22.8955 21.6037 22.9289 21.7895 22.9289 25.1241V28.6138L19.6866 31.1093C15.3229 34.4683 15.3633 34.383 17.088 36.5965C18.4051 38.287 18.6587 38.3108 20.551 36.9219L22.0241 35.8407V51.1975V66.5543L21.2451 66.9711C20.8168 67.2006 20.108 68.0038 19.67 68.7563C19.2324 69.5088 18.5622 70.3741 18.181 70.6791C16.3786 72.1208 15.4734 78.4136 16.9227 79.4285C17.991 80.1768 77.2224 80.197 77.8432 79.4493C78.5348 78.6157 77.8115 77.9784 76.0567 77.8755L74.5043 77.7841V68.9026C74.5043 64.0174 74.5867 60.0208 74.6871 60.0208C74.7875 60.0208 75.3841 60.4279 76.0124 60.9256C77.6338 62.2099 78.4195 62.1161 79.5804 60.4994C81.2182 58.2189 81.5623 58.5453 60.8332 42.7331C58.8981 41.2567 58.1028 41.2926 55.9064 42.9559L54.1456 44.2897L54.0509 42.8884C53.8102 39.3276 51.8835 40.189 51.8835 43.8572V46.049L44.1925 52.0076C35.7329 58.5613 35.9075 58.3414 37.4575 60.4994C38.9448 62.5706 38.8332 62.6261 49.0581 54.7239C54.1158 50.8153 58.4279 47.6599 58.6408 47.7114C58.8535 47.7633 62.03 50.1129 65.6994 52.9329L72.371 58.0603L72.3819 67.938L72.3931 77.8158H68.6229H64.8528V76.6416C64.8528 75.8761 64.6954 75.4071 64.4004 75.2937C63.5182 74.9553 63.0431 75.427 63.0431 76.6416V77.8158H58.519H53.9948V70.5771V63.3385H58.5111H63.0274L63.1107 67.938L63.1939 72.5376H63.948H64.702L64.7846 67.5143C64.8911 61.0278 65.4063 61.5288 58.6285 61.5288C51.4643 61.5288 52.1852 60.5827 52.1852 69.9845V77.8158H48.5658H44.9465V76.1741C44.9465 74.4625 44.327 73.5932 43.107 73.5932C42.72 73.5932 42.5774 73.2204 42.4706 71.9314C42.1084 67.564 36.642 65.0634 33.2902 67.7323C31.9727 68.781 29.891 68.8628 29.1819 67.8934C28.4728 66.9243 26.8942 66.0475 25.5183 65.859L24.1354 65.6693V49.9225V34.1755L30.9237 28.9262C34.6574 26.0389 37.8249 23.6387 37.9627 23.5926C38.1006 23.5461 41.2551 25.8546 44.973 28.722L51.7327 33.936L51.8835 35.8633C52.0947 38.5633 53.9948 39.5474 53.9948 36.9569C53.9948 35.641 54.0401 35.6416 55.6642 36.9723C57.2679 38.2864 57.7514 38.2252 59.0326 36.5458C60.6915 34.3709 60.7388 34.4388 53.8133 29.084C50.3957 26.4419 45.8148 22.8789 43.6339 21.1664C37.9048 16.6679 38.252 16.708 33.9697 20.0556C31.8599 21.7045 31.0724 22.1759 31.0724 21.7892C31.0724 21.497 31.3502 21.0847 31.6898 20.8726C32.6719 20.2592 32.4369 16.9104 31.374 16.3747C30.6206 15.995 23.5913 15.8505 22.6273 16.195ZM30.4692 18.7001C30.4692 19.2684 30.268 19.3034 27.0007 19.3034C23.7333 19.3034 23.5322 19.2684 23.5322 18.7001C23.5322 18.1319 23.7333 18.0969 27.0007 18.0969C30.268 18.0969 30.4692 18.1319 30.4692 18.7001ZM43.6767 23.734C46.6147 26.0048 49.5611 28.2787 50.2247 28.7866C53.1422 31.02 57.9158 34.7793 57.9158 34.8432C57.9158 36.0207 56.5745 35.1611 47.7877 28.3541C42.6585 24.3804 38.3056 21.1257 38.1147 21.1212C37.9238 21.1166 33.5444 24.377 28.3827 28.3661C19.7783 35.0164 18.3725 35.9375 18.4217 34.8939C18.4392 34.5244 37.6231 19.605 38.0806 19.605C38.2209 19.605 40.739 21.4629 43.6767 23.734ZM28.9612 22.7043C28.9612 23.9494 28.8885 24.0483 26.8499 25.5738L24.7386 27.154V24.2841V21.4146H26.8499H28.9612V22.7043ZM32.3461 30.6309C31.39 31.3005 31.2814 47.8077 32.2273 48.6636C33.0293 49.3896 43.1468 49.4113 43.8695 48.689C44.2778 48.2803 44.3433 47.0349 44.3433 39.6575C44.3433 29.153 45.0156 30.1613 38.0095 30.1613C33.9784 30.1613 32.8872 30.2518 32.3461 30.6309ZM37.1046 34.0823V35.8919H35.295H33.4853V34.0823V32.2726H35.295H37.1046V34.0823ZM42.5336 34.0823V35.8919H40.724H38.9143V34.0823V32.2726H40.724H42.5336V34.0823ZM37.1046 39.6621V41.3209H35.295H33.4853V39.6621V38.0032H35.295H37.1046V39.6621ZM42.5336 39.6621V41.3209H40.724H38.9143V39.6621V38.0032H40.724H42.5336V39.6621ZM37.1046 45.2419V47.0515H35.295H33.4853V45.2419V43.4322H35.295H37.1046V45.2419ZM42.5336 45.2419V47.0515H40.724H38.9143V45.2419V43.4322H40.724H42.5336V45.2419ZM62.2891 46.3343C64.1139 47.7567 68.4233 51.0949 71.8652 53.7527C75.3075 56.4105 78.1237 58.7643 78.1237 58.9835C78.1237 59.9092 77.4233 59.5711 74.3167 57.1461C56.9898 43.6201 58.8082 44.6984 56.4264 46.5373C52.4295 49.6233 45.7506 54.7848 42.707 57.1398C39.6098 59.5364 38.7544 59.9475 38.9731 58.9341C39.0929 58.3779 57.9257 43.7444 58.519 43.7465C58.7678 43.7474 60.4644 44.9119 62.2891 46.3343ZM27.2571 68.8812C27.7794 69.4413 28.3793 70.1169 28.5899 70.3826C28.8824 70.7518 29.2854 70.8226 30.3003 70.6836C31.4561 70.5253 31.7281 70.6022 32.4055 71.2799C33.6047 72.4788 33.4612 73.5332 32.0831 73.6505C30.9017 73.751 30.2563 74.4133 30.5624 75.2111C30.7292 75.6457 31.4896 75.7045 36.9445 75.7045H43.1368V76.7601V77.8158H30.62H18.1032V76.7601V75.7045H22.4518C27.1566 75.7045 27.7547 75.6056 27.7547 74.8277C27.7547 73.7489 27.1385 73.5932 22.8686 73.5932C20.295 73.5932 18.7064 73.478 18.7064 73.2916C18.7064 72.895 19.8257 71.7836 20.2253 71.7836C20.3969 71.7836 20.7905 71.1933 21.0997 70.4722C22.3055 67.659 25.3768 66.8655 27.2571 68.8812ZM54.8119 68.3525C54.4189 68.7454 54.5784 71.6934 55.0122 72.0535C56.0639 72.9264 57.1286 70.8389 56.5193 69.0986C56.2548 68.3437 55.2568 67.9076 54.8119 68.3525ZM39.1873 69.5438C40.1527 70.3561 40.9357 72.3048 40.6235 73.1182C40.4775 73.4985 39.934 73.5932 37.8946 73.5932H35.3481L35.1457 72.3955C35.0344 71.7371 34.6806 70.8643 34.3597 70.4562C33.0477 68.7883 37.3281 67.9794 39.1873 69.5438Z" fill="black"/>
</svg>
