<svg width="201" height="200" viewBox="0 0 201 200" fill="none" xmlns="http://www.w3.org/2000/svg">
<path fill-rule="evenodd" clip-rule="evenodd" d="M20.7373 0.609237C16.2574 2.2106 15.3479 11.7396 19.3235 15.424C21.5752 17.5117 21.6798 18.0923 21.6798 28.5129V39.418L11.5476 47.2165C-2.08899 57.7135 -1.96269 57.4468 3.42671 64.364C7.54275 69.6469 8.33542 69.7214 14.2489 65.381L18.8522 62.0021V109.992V157.982L16.4176 159.285C15.0792 160.002 12.8643 162.512 11.4957 164.863C10.1281 167.215 8.03381 169.919 6.84245 170.872C1.20987 175.377 -1.61867 195.042 2.9102 198.214C6.24865 200.552 191.347 200.616 193.287 198.279C195.448 195.674 193.188 193.682 187.704 193.361L182.853 193.075V165.321C182.853 150.054 183.11 137.565 183.424 137.565C183.738 137.565 185.602 138.837 187.566 140.392C192.633 144.406 195.088 144.113 198.716 139.061C203.834 131.934 204.909 132.954 140.131 83.5408C134.083 78.9271 131.598 79.0393 124.734 84.2373L119.232 88.4052L118.936 84.0262C118.184 72.8987 112.163 75.5905 112.163 87.0536V93.903L88.1284 112.524C61.6922 133.004 62.2379 132.317 67.0816 139.061C71.7292 145.533 71.3805 145.706 103.333 121.012C119.139 108.798 132.614 98.9371 133.279 99.0983C133.944 99.2604 143.871 106.603 155.338 115.415L176.186 131.438L176.22 162.306L176.255 193.174H164.474H152.692V189.505C152.692 187.113 152.2 185.647 151.278 185.293C148.521 184.235 147.037 185.709 147.037 189.505V193.174H132.899H118.761V170.554V147.933H132.874H146.988L147.248 162.306L147.508 176.68H149.864H152.221L152.479 160.982C152.812 140.712 154.421 142.278 133.241 142.278C110.853 142.278 113.105 139.321 113.105 168.701V193.174H101.795H90.4847V188.044C90.4847 182.695 88.5487 179.979 84.7362 179.979C83.5269 179.979 83.0811 178.814 82.7474 174.786C81.6155 161.138 64.533 153.323 54.0586 161.664C49.9416 164.941 43.4363 165.196 41.2204 162.167C39.0045 159.139 34.0713 156.399 29.7714 155.809L25.4499 155.217V106.008V56.7983L46.6635 40.3945C58.3311 31.3716 68.2296 23.8709 68.6603 23.7267C69.0911 23.5816 78.949 30.7957 90.5676 39.7564L111.692 56.05L112.163 62.0727C112.823 70.5103 118.761 73.5858 118.761 65.4904C118.761 61.3781 118.902 61.38 123.978 65.5384C128.989 69.645 130.5 69.4537 134.504 64.2057C139.688 57.4091 139.836 57.6212 118.193 40.8874C107.513 32.6308 93.1982 21.4967 86.3828 16.145C68.4794 2.08713 69.5642 2.21248 56.1822 12.6737C49.5891 17.8265 47.1282 19.2997 47.1282 18.0913C47.1282 17.178 47.9963 15.8896 49.0575 15.227C52.1264 13.3099 51.3922 2.84492 48.0707 1.17099C45.7163 -0.0156619 23.7496 -0.467136 20.7373 0.609237ZM45.2431 8.43791C45.2431 10.2136 44.6144 10.323 34.404 10.323C24.1935 10.323 23.5649 10.2136 23.5649 8.43791C23.5649 6.66218 24.1935 6.55285 34.404 6.55285C44.6144 6.55285 45.2431 6.66218 45.2431 8.43791ZM86.5166 24.1688C95.6978 31.2651 104.905 38.3709 106.979 39.9581C116.096 46.9375 131.014 58.6853 131.014 58.8851C131.014 62.5647 126.822 59.8785 99.3633 38.6065C83.3346 26.1886 69.732 16.0178 69.1354 16.0036C68.5388 15.9895 54.8532 26.1783 38.7227 38.6442C11.8341 59.4261 7.44096 62.3046 7.59459 59.0434C7.64926 57.8888 67.5991 11.2655 69.0289 11.2655C69.4672 11.2655 77.3364 17.0715 86.5166 24.1688ZM40.5305 20.951C40.5305 24.8418 40.3033 25.1509 33.9327 29.9182L27.335 34.8562V25.888V16.9207H33.9327H40.5305V20.951ZM51.1085 45.7217C48.1207 47.8141 47.7814 99.3989 50.7371 102.074C53.2433 104.343 84.8606 104.41 87.1189 102.153C88.3951 100.876 88.5996 96.9842 88.5996 73.9298C88.5996 41.1033 90.7005 44.2542 68.8064 44.2542C56.2095 44.2542 52.7994 44.5369 51.1085 45.7217ZM65.9788 56.5071V62.1623H60.3236H54.6684V56.5071V50.8519H60.3236H65.9788V56.5071ZM82.9444 56.5071V62.1623H77.2892H71.634V56.5071V50.8519H77.2892H82.9444V56.5071ZM65.9788 73.9439V79.1279H60.3236H54.6684V73.9439V68.76H60.3236H65.9788V73.9439ZM82.9444 73.9439V79.1279H77.2892H71.634V73.9439V68.76H77.2892H82.9444V73.9439ZM65.9788 91.3808V97.036H60.3236H54.6684V91.3808V85.7256H60.3236H65.9788V91.3808ZM82.9444 91.3808V97.036H77.2892H71.634V91.3808V85.7256H77.2892H82.9444V91.3808ZM144.68 94.7946C150.383 99.2396 163.85 109.672 174.606 117.977C185.363 126.283 194.163 133.638 194.163 134.324C194.163 137.216 191.975 136.16 182.267 128.582C128.12 86.3128 133.803 89.6823 126.359 95.429C113.869 105.073 92.9975 121.203 83.4864 128.562C73.8075 136.051 71.1345 137.336 71.8178 134.169C72.192 132.431 131.045 86.7011 132.899 86.7077C133.676 86.7105 138.978 90.3497 144.68 94.7946ZM35.2051 165.254C36.8376 167.004 38.7123 169.115 39.3702 169.946C40.2845 171.099 41.5437 171.321 44.7153 170.886C48.3271 170.391 49.1772 170.632 51.2942 172.75C55.0417 176.496 54.593 179.791 50.2866 180.158C46.5947 180.472 44.5777 182.542 45.5344 185.035C46.0556 186.393 48.4317 186.577 65.4784 186.577H84.8295V189.875V193.174H45.7144H6.59928V189.875V186.577H20.1887C34.8913 186.577 36.7603 186.267 36.7603 183.837C36.7603 180.465 34.8347 179.979 21.4913 179.979C13.4487 179.979 8.48434 179.619 8.48434 179.036C8.48434 177.797 11.9821 174.324 13.2309 174.324C13.7672 174.324 14.9972 172.479 15.9633 170.226C19.7316 161.435 29.3294 158.955 35.2051 165.254ZM121.314 163.601C120.086 164.83 120.584 174.042 121.94 175.167C125.226 177.895 128.554 171.372 126.65 165.933C125.823 163.574 122.704 162.211 121.314 163.601ZM72.487 167.324C75.5041 169.863 77.9509 175.952 76.9754 178.494C76.5192 179.683 74.8207 179.979 68.4473 179.979H60.4895L59.8571 176.236C59.5093 174.179 58.4037 171.451 57.4008 170.176C53.3008 164.963 66.6773 162.436 72.487 167.324Z" fill="black"/>
</svg>
