<svg width="199" height="200" viewBox="0 0 199 200" fill="none" xmlns="http://www.w3.org/2000/svg">
<path fill-rule="evenodd" clip-rule="evenodd" d="M61.9278 3.00606C45.0591 10.9858 37.7054 30.6378 45.3867 47.2069C48.6565 54.2583 96.4868 103.218 99.6219 102.721C102.999 102.187 150.533 53.5673 153.414 47.7002C168.317 17.3588 131.756 -13.2821 103.691 6.02779L99.3389 9.02239L96.0061 6.48037C86.8847 -0.476985 72.4098 -1.95296 61.9278 3.00606ZM86.8847 9.27146C88.8268 10.2164 92.1674 12.487 94.3072 14.3187C99.1141 18.4336 101.097 18.4908 104.734 14.6191C121.108 -2.81161 151.536 11.4539 149.532 35.622C148.797 44.4808 146.319 47.7632 122.14 71.9119L99.3438 94.6777L77.9784 73.3656C54.5227 49.9661 51.5232 46.2184 49.866 38.2367C45.6513 17.9335 68.2823 0.225632 86.8847 9.27146ZM90.863 23.1358C90.0722 23.4556 89.6516 25.767 89.6516 29.7995V35.9738L83.1099 36.2597L76.5683 36.5466L76.2873 45.1224C75.9394 55.7033 76.422 56.4136 83.955 56.4136H89.6516V62.0346C89.6516 69.366 90.4123 69.9814 99.4678 69.9814C108.79 69.9814 110.003 69.0249 110.003 61.675V56.4136H115.265C122.484 56.4136 123.571 55.1276 123.571 46.5896C123.571 37.0117 122.868 36.062 115.784 36.062H110.003V30.4411C110.003 23.1106 100.2 19.3688 90.863 23.1358ZM102.25 34.1877C102.25 41.7808 103.209 42.8459 110.037 42.8459C115.814 42.8459 115.818 42.8478 115.818 45.7533C115.818 48.5957 115.71 48.6606 110.972 48.6606C107.419 48.6606 105.61 49.1772 104.188 50.5989C102.767 52.0206 102.25 53.829 102.25 57.3828C102.25 62.1208 102.185 62.2284 99.3428 62.2284C96.4374 62.2284 96.4354 62.2245 96.4354 56.4476C96.4354 49.6191 95.3704 48.6606 87.7773 48.6606C82.9685 48.6606 82.8677 48.6015 82.8677 45.7533C82.8677 42.8565 82.889 42.8459 88.4886 42.8459C95.4993 42.8459 96.4354 41.9097 96.4354 34.899C96.4354 29.2994 96.4461 29.2781 99.3428 29.2781C102.191 29.2781 102.25 29.3789 102.25 34.1877ZM11.1184 42.6511C8.66844 45.101 7.20118 47.615 6.73309 50.1618C6.34641 52.2677 5.00126 55.0317 3.7443 56.3041C-1.95319 62.0724 -2.11988 60.7709 10.1279 106.151C16.3381 129.161 15.3932 127.555 31.0184 141.625C38.2801 148.164 44.6308 154.59 45.1309 155.906C46.7086 160.054 46.225 165.337 44.1026 167.154C41.7641 169.156 41.0935 196.448 43.3273 198.681C45.3063 200.66 95.0806 200.31 95.8472 198.311C97.1448 194.931 96.4907 167.991 95.0922 167.185C94.0398 166.578 93.6657 162.288 93.3682 147.434L92.9873 128.459L89.92 122.228C85.8041 113.867 83.9889 112.331 65.4234 101.502C45.7821 90.0453 48.5916 93.6678 40.2251 69.0123C36.336 57.5524 32.3771 46.8678 31.4264 45.2687C27.0595 37.9179 17.1318 36.6377 11.1184 42.6511ZM172.322 40.865C168.013 43.4923 167.094 45.2503 161.406 61.7438C158.649 69.7391 155.225 79.6417 153.798 83.7498L151.203 91.2189L135.694 100.225C107.986 116.314 106.746 118.256 106.298 146.214C106.013 164.049 105.823 165.9 104.118 167.443C101.81 169.531 101.262 195.216 103.462 198.222C104.56 199.723 107.07 199.854 130.355 199.619L156.037 199.36L156.303 183.59C156.53 170.187 156.348 167.736 155.092 167.254C154 166.835 153.614 165.201 153.614 160.991C153.614 154.293 153.512 154.425 169.604 140.155C183.46 127.867 182.7 129.315 190.507 100.328C200.729 62.366 200.792 61.77 195.215 56.1937C193.559 54.5374 192.379 52.3259 192.379 50.8809C192.379 41.8603 180.456 35.906 172.322 40.865ZM23.7083 47.4618C28.1091 51.0253 40.6264 90.3331 37.3604 90.3331C35.7623 90.3331 34.6934 87.9093 30.5765 74.9579C25.194 58.0263 23.6986 55.4406 17.9546 53.1419C13.5838 51.3936 13.0218 49.497 16.2141 47.2622C19.0158 45.2997 21.1062 45.3549 23.7083 47.4618ZM182.92 46.9647C185.809 49.1917 185.417 51.8084 182.06 52.7C176.473 54.1847 173.754 58.7037 168.324 75.5365C163.811 89.5248 163.1 91.0667 161.363 90.6132C158.915 89.9726 158.364 92.3556 166.317 69.2003C174.235 46.1496 177.021 42.4185 182.92 46.9647ZM17.7026 61.2893C21.5578 65.7919 28.7817 91.152 28.9368 100.729C29.1122 111.556 29.2362 111.717 44.0978 120.31C54.7039 126.443 56.7022 127.072 58.5377 124.86C60.5419 122.444 58.5881 120.54 47.5052 114.103C36.6413 107.795 35.3805 106.608 35.3805 102.687C35.3805 94.5749 41.2175 95.4898 60.1368 106.566C85.525 121.429 85.775 121.835 85.775 148.077V165.925H69.2999H52.8247V161.099C52.8247 152.451 51.0038 149.773 36.3186 136.824C27.0877 128.683 22.5376 123.989 21.8854 121.93C18.6621 111.754 7.2758 67.8426 7.2758 65.5864C7.2758 59.9083 14.1081 57.092 17.7026 61.2893ZM190.441 61.2593C193.261 64.0794 193.898 60.9046 181.166 107.497C178.804 116.138 176.873 123.405 176.873 123.646C176.873 123.887 170.766 129.596 163.303 136.335C148.405 149.783 146.86 151.934 146.105 160.267L145.591 165.925H129.251H112.911L112.916 149.208C112.924 122.574 113.564 121.507 138.15 107.067C157.563 95.6642 160.802 94.8928 163.165 101.109C164.792 105.388 162.576 107.815 150.883 114.561C141.162 120.171 139.996 121.126 140.248 123.283C140.75 127.583 144.082 126.808 156.389 119.525C170.442 111.209 173.251 106.889 170.063 98.5009C168.78 95.1264 178.671 63.7412 181.877 61.017C184.52 58.7696 188.051 58.8694 190.441 61.2593ZM89.6516 183.369V193.06H69.7845H49.9174V183.369V173.678H69.7845H89.6516V183.369ZM149.737 183.369V193.06H129.87H110.003V183.369V173.678H129.87H149.737V183.369Z" fill="black"/>
</svg>
