<svg width="201" height="200" viewBox="0 0 201 200" fill="none" xmlns="http://www.w3.org/2000/svg">
<path fill-rule="evenodd" clip-rule="evenodd" d="M22.9813 1.51435C18.6422 3.26816 16.5203 8.43549 16.5162 17.2594L16.512 25.2735H11.779C7.92289 25.2735 6.48448 25.835 4.01301 28.3065L0.979004 31.3405L1.2489 77.6841L1.51776 124.029H4.10298H6.6882L7.20524 78.559L7.72228 33.0891L10.3075 31.7707C14.116 29.8287 160.562 30.3426 162.525 32.3053C163.594 33.3735 163.975 49.5384 164.386 111.413C164.79 172.094 165.195 189.687 166.232 191.503L167.561 193.83H91.019H14.4769L11.0996 190.814L7.72228 187.798L7.20524 160.567L6.6882 133.336H4.10298H1.51776L1.26648 160.222C0.980038 190.886 1.44745 192.932 9.81114 197.669L13.9268 200H100.79H187.653L191.769 197.669C194.076 196.362 196.907 193.531 198.214 191.224L200.545 187.108L200.563 97.8664C200.584 -13.0135 205.748 0.286894 162.835 0.696393L133.881 0.972492V3.55771V6.14292L156.631 6.42006L179.381 6.69719L179.083 42.5976C178.815 74.8538 178.957 78.6241 180.476 79.7358C184.903 82.9724 185.068 81.7398 185.068 45.5582C185.068 9.12833 185.387 6.65997 190.091 6.65997C194.437 6.65997 194.375 5.33427 194.375 97.9698V186.798L190.859 190.314C185.574 195.599 177.373 195.14 172.478 189.283C170.959 187.466 170.654 184.962 170.625 174.06L170.591 161.011L174.843 160.441C177.529 160.08 180.2 158.812 182.095 156.995L185.097 154.12L184.824 121.509C184.565 90.5296 184.454 88.8792 182.607 88.5234C179.179 87.8637 178.896 90.3879 178.879 121.666C178.863 155.287 179.003 154.534 172.727 154.534C170.593 154.534 170.591 154.476 170.591 95.0413C170.591 32.4222 170.502 31.1265 165.94 27.3417C164.332 26.0077 154.2 25.7182 93.6518 25.2735L23.2336 24.7565L22.9234 18.1911C22.7031 13.5439 23.0857 10.9039 24.2325 9.15315L25.8529 6.67962L75.214 6.41179L124.574 6.14292V3.55771V0.972492L74.9379 0.773946C47.1075 0.663299 24.2821 0.988001 22.9813 1.51435ZM14.5535 38.0672C13.721 39.0703 13.4563 47.6408 13.6507 67.2802L13.9268 95.0744H85.2788H156.631L156.906 66.7083C157.12 44.704 156.888 38.1562 155.872 37.5109C153.365 35.9205 15.8864 36.4613 14.5535 38.0672ZM150.943 66.1199V89.3869H85.2788H19.6143V66.1199V42.853H85.2788H150.943V66.1199ZM25.5179 50.7369C24.4714 51.7834 24.6379 80.3159 25.6999 81.9911C28.4071 86.2629 30.466 82.7656 30.9892 73.0049L31.5063 63.3651L38.051 72.8208C48.6483 88.1294 50.6369 87.2277 50.6369 67.1116C50.6369 51.5279 50.3277 50.0916 46.9762 50.0916C43.6899 50.0916 43.057 52.7347 43.9174 62.8522L44.6361 71.2904L37.4978 60.9495C30.8455 51.3108 27.6595 48.5953 25.5179 50.7369ZM57.2964 51.4318C57.013 52.1691 56.9117 59.4976 57.0699 67.7186L57.3584 82.6653H65.6166C72.878 82.6653 73.9204 82.4306 74.2502 80.7212C74.7518 78.1164 72.7343 77.013 67.4408 76.9934C60.1515 76.9675 60.6334 70.0071 67.9578 69.5376C72.424 69.2512 72.8697 68.9875 72.8697 66.637C72.8697 64.2865 72.424 64.0228 67.9578 63.7364C60.5279 63.2597 60.167 56.2961 67.5731 56.2961C72.393 56.2961 75.0909 54.3634 74.0517 51.6562C73.2523 49.5725 58.0875 49.3688 57.2964 51.4318ZM81.1755 51.3118C80.2531 53.9643 86.2498 81.3655 87.9922 82.4657C91.1638 84.4657 92.8969 82.3675 95.8275 72.9842L98.7219 63.7157L101.906 73.19C107.172 88.8605 110.003 87.4201 114.233 66.9172C117.251 52.2942 117.142 49.7504 113.524 50.2777C111.137 50.6252 110.859 51.3294 108.486 63.0177L107.226 69.2222L104.215 59.5917C100.099 46.4268 98.0198 46.4878 93.5732 59.9051L90.4926 69.2015L89.1845 63.0073C86.7792 51.6096 86.3749 50.6273 83.9469 50.2777C82.6842 50.0957 81.4371 50.5611 81.1755 51.3118ZM126.493 52.5424C120.417 57.7697 123.215 64.8697 132.738 68.3867C138.667 70.5769 140.629 72.9025 138.607 75.3399C136.73 77.6014 131.677 77.3905 128.188 74.9066C124.757 72.463 121.739 73.1641 122.193 76.2985C123.311 84.0127 140.792 85.3881 144.708 78.0688C147.843 72.2107 145.129 66.9058 137.285 63.5626C130.501 60.6703 129.197 59.6455 129.916 57.7718C130.606 55.9766 136.73 55.7977 139.445 57.4936C141.964 59.0664 144.739 57.9279 144.739 55.321C144.739 50.1619 131.589 48.1589 126.493 52.5424ZM14.0995 106.622C12.7738 107.947 13.3032 172.628 14.6507 173.975C15.9629 175.287 69.4914 175.852 72.7849 174.588C74.2306 174.034 74.4209 170.009 74.4209 139.946V105.932H44.605C28.2055 105.932 14.478 106.243 14.0995 106.622ZM84.7617 108.407C84.7617 112.529 152.766 114.619 156.102 110.599C159.801 106.142 158.2 105.932 120.47 105.932H84.7617V108.407ZM68.2163 140.574V169.012H43.9153H19.6143V140.574V112.137H43.9153H68.2163V140.574ZM85.1412 119.879C83.345 124.559 83.5953 124.589 121.186 124.301L156.631 124.029V121.444V118.858L121.186 118.586C90.3282 118.35 85.6634 118.517 85.1412 119.879ZM85.1412 132.288C83.345 136.968 83.5953 136.998 121.186 136.71L156.631 136.438V133.853V131.267L121.186 130.995C90.3282 130.759 85.6634 130.926 85.1412 132.288ZM85.1412 144.697C83.345 149.377 83.5953 149.407 121.186 149.119L156.631 148.847V146.262V143.676L121.186 143.404C90.3282 143.168 85.6634 143.335 85.1412 144.697ZM86.0543 156.253C85.3439 156.54 84.7617 157.905 84.7617 159.287V161.8L120.683 161.528C158.048 161.245 162.472 160.613 155.957 156.484C154.501 155.561 88.3107 155.343 86.0543 156.253ZM84.7617 171.473C84.7617 175.06 150.631 177.676 155.957 174.301C162.472 170.172 158.048 169.54 120.683 169.257L84.7617 168.985V171.473ZM14.1067 182.103C8.59091 187.618 9.89696 187.712 87.3469 187.393L156.631 187.108V184.523V181.938L85.7172 181.672C46.7136 181.526 14.4893 181.719 14.1067 182.103Z" fill="black"/>
</svg>
