<svg width="202" height="200" viewBox="0 0 202 200" fill="none" xmlns="http://www.w3.org/2000/svg">
<path fill-rule="evenodd" clip-rule="evenodd" d="M35.3702 1.10711C34.6033 1.87405 34.29 7.30834 34.29 19.8323V37.4764L47.5674 50.7197C64.8623 67.9704 70.1814 71.337 82.4677 72.8169C89.9985 73.7234 89.8311 73.0374 85.1439 83.7539C80.1696 95.1293 80.2947 95.6919 88.3944 98.3006C96.3563 100.865 95.7622 101.269 106.266 86.1204L114.78 73.8404L145.873 73.835C192.182 73.8278 198.539 69.4224 179.667 50.4172C164.638 35.2854 159.659 33.333 136.082 33.333H120.113L113.512 22.7561C102.747 5.50711 103.582 6.32807 96.8055 6.32807C87.4888 6.32807 86.9271 7.38666 90.0426 19.0744C91.4073 24.1936 92.7989 29.5073 93.1356 30.8818L93.7477 33.3816L80.5081 33.1323L67.2693 32.8829L62.5831 17.4325C60.005 8.93494 57.6241 1.54189 57.2919 1.00449C56.426 -0.396164 36.7817 -0.304345 35.3702 1.10711ZM54.5932 15.1047C60.8791 35.6563 61.4021 33.333 50.493 33.333H41.4913V20.2806V7.22823H46.8374H52.1844L54.5932 15.1047ZM105.557 23.2196L111.562 32.8829L106.58 33.1557C100.493 33.4896 101.184 34.2665 98.5942 24.181C94.8441 9.57496 96.901 9.29141 105.557 23.2196ZM160.313 43.6849L165.264 46.3854L153.337 46.6365L141.41 46.8877V50.0121V53.1366H156.907H172.403L176.71 57.3782C181.099 61.7017 181.861 63.6343 179.937 65.5589C178.032 67.4636 120.346 67.0748 121.08 65.1619C122.741 60.833 121.398 60.3379 107.997 60.3379H95.4094L94.0411 63.6118L92.6738 66.8857L86.4581 66.3078C74.3563 65.1835 66.2684 60.5666 53.1935 47.3216L46.4422 40.483L100.902 40.7332L155.362 40.9844L160.313 43.6849ZM74.7974 49.986C74.7974 52.9863 74.9477 53.1366 77.948 53.1366C80.9482 53.1366 81.0986 52.9863 81.0986 49.986C81.0986 46.9858 80.9482 46.8355 77.948 46.8355C74.9477 46.8355 74.7974 46.9858 74.7974 49.986ZM87.3997 49.986C87.3997 53.0619 87.4852 53.1366 91.0004 53.1366C94.5155 53.1366 94.601 53.0619 94.601 49.986C94.601 46.9102 94.5155 46.8355 91.0004 46.8355C87.4852 46.8355 87.3997 46.9102 87.3997 49.986ZM100.902 49.986C100.902 53.0619 100.988 53.1366 104.503 53.1366C108.018 53.1366 108.103 53.0619 108.103 49.986C108.103 46.9102 108.018 46.8355 104.503 46.8355C100.988 46.8355 100.902 46.9102 100.902 49.986ZM114.405 49.986C114.405 53.0619 114.49 53.1366 118.005 53.1366C121.52 53.1366 121.606 53.0619 121.606 49.986C121.606 46.9102 121.52 46.8355 118.005 46.8355C114.49 46.8355 114.405 46.9102 114.405 49.986ZM127.907 49.986C127.907 53.0619 127.993 53.1366 131.508 53.1366C135.023 53.1366 135.108 53.0619 135.108 49.986C135.108 46.9102 135.023 46.8355 131.508 46.8355C127.993 46.8355 127.907 46.9102 127.907 49.986ZM110.804 67.1693C110.804 69.3684 93.1185 92.4234 91.7142 92.0552C89.4521 91.4647 89.507 91.2487 95.2185 78.2701L100.338 66.6391H105.57C108.449 66.6391 110.804 66.8776 110.804 67.1693ZM36.3154 94.0887C34.606 95.3192 34.29 96.3805 34.29 100.897V106.246H27.7107C18.3229 106.246 18.6227 105.788 14.9554 125.752C13.2127 135.242 11.7859 143.21 11.7859 143.457C11.7859 143.706 9.75694 144.583 7.27608 145.406C0.205291 147.755 0.205291 147.873 7.29589 167.584C14.4333 187.424 14.3217 186.881 11.4051 187.613C10.2052 187.915 8.07903 189.105 6.67927 190.259C5.27952 191.412 3.42518 192.614 2.55922 192.93C0.102671 193.827 0.350218 199.863 2.84367 199.863C5.08688 199.863 7.76577 198.519 11.1801 195.679C14.4072 192.994 17.2661 192.994 20.4932 195.679C27.4191 201.44 33.0595 201.44 39.9854 195.679C43.3772 192.857 45.9516 193.011 50.0681 196.283C56.0722 201.054 62.4877 201.079 68.2217 196.353C72.2743 193.012 74.6993 192.847 78.1037 195.679C81.518 198.519 84.1969 199.863 86.4401 199.863C88.9327 199.863 89.1802 193.83 86.7246 192.927C85.8577 192.608 83.7405 191.203 82.0185 189.804C80.2965 188.405 78.1703 187.261 77.2927 187.261C75.1062 187.261 74.9117 188.051 82.1103 167.701C89.3414 147.26 89.3459 147.844 81.9294 145.38C79.4918 144.571 77.4916 143.435 77.4835 142.856C77.4763 142.276 76.072 134.313 74.3635 125.16C70.762 105.86 71.023 106.246 61.5731 106.246H54.9938L54.9803 101.07C54.9605 93.6206 54.5338 93.2416 45.8004 92.9122C40.0241 92.6943 37.8835 92.959 36.3154 94.0887ZM47.7925 103.096C47.7925 106.096 47.6422 106.246 44.6419 106.246C41.6417 106.246 41.4913 106.096 41.4913 103.096C41.4913 100.095 41.6417 99.9452 44.6419 99.9452C47.6422 99.9452 47.7925 100.095 47.7925 103.096ZM65.2791 114.573C66.001 117.053 70.2174 140.832 69.9788 141.071C69.8375 141.211 64.099 139.447 57.2262 137.15L44.7292 132.972L32.9839 136.838C26.5234 138.965 20.7974 140.868 20.2591 141.068C19.3239 141.417 20.6534 132.05 23.4538 118.562L24.516 113.448H44.7337C60.1337 113.448 65.0297 113.716 65.2791 114.573ZM31.5895 123.349V126.95H45.092H58.5945V123.349V119.749H45.092H31.5895V123.349ZM95.6812 124.43C94.1329 125.978 94.1329 187.333 95.6812 188.881C96.3482 189.548 99.6267 189.962 104.255 189.962C111.305 189.962 111.797 190.088 112.558 192.09C116.404 202.206 133.032 202.135 136.977 191.987C137.74 190.026 138.146 189.962 149.714 189.982L161.663 190.002L163.087 192.908C167.623 202.161 182.104 202.155 186.418 192.898C187.74 190.06 187.892 190 193.813 189.981C201.668 189.956 201.721 189.844 201.721 172.994V159.51L196.095 148.406L190.469 137.302L179.442 137.049L168.415 136.796V131.153C168.415 127.964 167.945 125.04 167.334 124.43C165.783 122.879 97.2322 122.879 95.6812 124.43ZM161.213 156.656V182.76H149.585H137.956L135.943 179.503C130.827 171.226 118.31 171.262 113.41 179.568C111.622 182.597 111.278 182.76 106.664 182.76H101.802V156.656V130.551H131.508H161.213V156.656ZM41.4391 164.082L41.386 186.811L36.8366 189.737C27.0356 196.039 23.7113 193.213 16.4082 172.372C13.4665 163.976 10.6346 156.018 10.117 154.69L9.17543 152.274L25.1083 146.885C33.8714 143.92 41.1421 141.463 41.2663 141.424C41.3905 141.385 41.4679 151.581 41.4391 164.082ZM61.4273 145.895C81.0049 152.308 80.157 151.891 79.2928 154.676C78.6042 156.894 73.9261 170.061 69.2416 182.965C65.7067 192.703 59.8754 194.884 52.3392 189.286L47.7943 185.911L47.7934 164.082C47.7925 145.991 48.0076 142.253 49.05 142.253C49.7422 142.253 55.3116 143.892 61.4273 145.895ZM174.716 153.023C174.716 163.879 174.691 163.857 186.358 163.857H194.519V173.309V182.76H190.919C188.938 182.76 187.318 182.37 187.318 181.892C187.318 177.343 177.244 172.075 171.551 173.648L168.415 174.514V159.283V144.053H171.565H174.716V153.023ZM188.925 149.921C190.516 153.148 191.819 155.984 191.819 156.223C191.819 156.461 189.591 156.656 186.868 156.656H181.917V150.354C181.917 141.409 184.644 141.241 188.925 149.921ZM128.67 181.635C133.235 185.499 130.789 192.676 124.916 192.649C121.541 192.632 120.442 192.009 119.019 189.305C115.912 183.405 123.568 177.319 128.67 181.635ZM178.645 181.926C183.4 185.666 180.84 192.662 174.716 192.662C170.724 192.662 168.415 190.303 168.415 186.226C168.415 183.581 172.013 180.06 174.716 180.06C175.573 180.06 177.341 180.9 178.645 181.926Z" fill="black"/>
</svg>
