<svg width="202" height="200" viewBox="0 0 202 200" fill="none" xmlns="http://www.w3.org/2000/svg">
<path fill-rule="evenodd" clip-rule="evenodd" d="M7.70392 6.15962C-0.582822 14.5205 -0.710642 13.0694 9.8618 30.7889L18.7006 45.6041H24.6394H30.5781L54.4706 69.5148L78.3641 93.4266L64.4276 107.332L50.491 121.238L40.504 121.284C14.1056 121.403 -4.76432 145.564 2.13575 170.407C4.10996 177.519 6.57396 176.949 16.4815 167.092C27.2956 156.335 31.0797 155.514 37.8606 162.458C44.3901 169.145 43.7037 172.154 33.2451 182.698C21.6781 194.358 22.4267 197.765 36.8133 198.92C61.1601 200.874 82.8335 178.018 78.522 154.936L77.5961 149.982L89.0375 138.576L100.478 127.171L103.02 129.878C105.407 132.418 105.454 132.706 103.775 134.56C99.4693 139.319 104.462 145.017 108.98 140.499C111.118 138.361 109.151 136.481 139.511 169.664C169.165 202.074 177.989 206.017 192.179 193.197C210.515 176.631 205.922 169.173 142.003 111.723C140.935 110.763 140.935 109.805 142.003 106.976C143.812 102.185 140.777 99.3524 136.699 102.025C134.46 103.492 133.942 103.479 131.526 101.896C127.856 99.491 127.549 100.019 139.602 88.0109L150.364 77.2903L160.279 77.2677C183.745 77.2151 199.753 61.5782 199.716 38.747C199.687 20.7073 196.704 19.3056 184.397 31.5472C173.706 42.1809 170.543 42.8952 163.967 36.1605C157.247 29.2776 158.023 25.7471 168.653 14.8567C180.586 2.63117 179.091 -0.101358 160.527 0.00283007C138.703 0.125278 123.037 16.3239 122.852 38.9575L122.769 48.9596L108.9 62.8596L95.031 76.7596L71.1665 52.9134L47.3031 29.0682L46.9873 23.196L46.6715 17.3239L32.171 8.42599C14.7178 -2.28394 15.9584 -2.16901 7.70392 6.15962ZM163.212 8.32824C163.212 8.50332 160.554 11.4808 157.305 14.9437L151.397 21.2412V28.2916V35.3421L158.079 42.0842L164.761 48.8264H171.745H178.729L185.6 42.1132L192.471 35.4001L191.897 41.4387C190.206 59.2184 176.397 70.1764 157.368 68.8392L147.606 68.1528L108.001 107.812C72.8314 143.029 68.4823 147.752 69.1783 149.974C75.3072 169.563 60.9249 190.609 41.4094 190.609H37.0668L43.7488 183.866L50.4309 177.124V170.261V163.398L43.6285 156.595L36.8251 149.793H29.4256H22.025L15.2237 156.506L8.42357 163.219L9.15182 157.311C11.3827 139.214 24.6909 128.498 43.3954 129.74L53.1161 130.386L92.494 91.0496L131.871 51.7147L131.281 41.8307C130.375 26.6257 136.047 16.4302 148.689 10.5431C153.024 8.52373 163.212 6.97057 163.212 8.32824ZM26.6512 14.6214C39.4374 22.2508 39.6898 22.5172 39.6898 28.3077V33.2347L64.4319 57.9939L89.1739 82.7532L86.4135 85.3461L83.653 87.939L58.709 63.0122L33.765 38.0853H28.7446H23.7232L16.7425 26.5387L9.76084 14.992L12.5739 12.0382C16.2044 8.2262 15.8145 8.15531 26.6512 14.6214ZM133.352 60.8564C130.297 63.9112 133.285 68.9402 137.382 67.6394C138.915 67.1528 139.582 66.0218 139.582 63.9069C139.582 59.9778 135.989 58.2195 133.352 60.8564ZM97.8388 96.5071C70.0462 124.237 68.8174 125.971 76.1912 127.061C79.4554 127.543 128.812 78.6447 128.829 74.9111C128.87 66.532 125.594 68.8145 97.8388 96.5071ZM126.2 107.952C128.162 110.119 128.08 110.257 119.959 118.378L111.73 126.607L108.978 124.023L106.226 121.437L114.016 113.596C122.512 105.043 123.255 104.698 126.2 107.952ZM183.863 161.342C197.052 174.044 193.464 190.609 177.525 190.609C169.626 190.609 164.263 185.552 121.017 137.334L117.069 132.931L125.777 124.245L134.487 115.56L155.562 134.972C167.154 145.65 179.89 157.516 183.863 161.342ZM62.4609 131.748C60.5275 133.681 60.9066 136.686 63.2428 137.935C66.3115 139.579 68.6907 138.19 68.6907 134.755C68.6907 130.868 65.0828 129.126 62.4609 131.748ZM136.574 134.97C133.92 137.624 135.732 140.058 153.824 158.129C172.579 176.86 176.178 179.333 177.7 174.538C178.724 171.308 177.547 169.861 158.655 151.135C141.363 133.995 139.161 132.383 136.574 134.97Z" fill="black"/>
</svg>
