<svg width="96" height="96" viewBox="0 0 96 96" fill="none" xmlns="http://www.w3.org/2000/svg">
<path fill-rule="evenodd" clip-rule="evenodd" d="M18.2403 17.9711C15.5886 20.6466 15.5477 20.1822 18.9309 25.8525L21.7593 30.5933H23.6597H25.5601L33.2057 38.2447L40.8516 45.8965L36.3919 50.3462L31.9322 54.7963L28.7363 54.8107C20.2889 54.8489 14.2505 62.5804 16.4585 70.5302C17.0903 72.8059 17.8787 72.6238 21.0492 69.4695C24.5097 66.0272 25.7206 65.7646 27.8905 67.9867C29.9799 70.1263 29.7603 71.0894 26.4135 74.4633C22.7121 78.1947 22.9516 79.2849 27.5553 79.6544C35.3463 80.2797 42.2818 72.9657 40.9021 65.5797L40.6058 63.9941L44.2671 60.3442L47.928 56.6946L48.7416 57.5608C49.5053 58.3737 49.5204 58.4658 48.9832 59.0591C47.6052 60.5821 49.2028 62.4055 50.6488 60.9598C51.3328 60.2755 50.7035 59.674 60.4186 70.2923C69.9078 80.6636 72.7315 81.9254 77.2723 77.8231C83.1398 72.522 81.6701 70.1353 61.216 51.7513C60.8743 51.4441 60.8743 51.1375 61.216 50.2325C61.7948 48.6992 60.8238 47.7928 59.5187 48.6479C58.8024 49.1175 58.6364 49.1133 57.8634 48.6067C56.6889 47.8371 56.5906 48.0062 60.4478 44.1635L63.8915 40.7329L67.0643 40.7257C74.5734 40.7088 79.6961 35.705 79.6841 28.399C79.6748 22.6263 78.7203 22.1778 74.7821 26.0951C71.3611 29.4979 70.3488 29.7265 68.2446 27.5714C66.094 25.3688 66.3425 24.2391 69.7439 20.7541C73.5626 16.842 73.0841 15.9676 67.1437 16.0009C60.1601 16.0401 55.147 21.2236 55.0876 28.4664L55.0611 31.6671L50.6231 36.1151L46.185 40.5631L38.5484 32.9323L30.9121 25.3018L30.811 23.4227L30.71 21.5436L26.0698 18.6963C20.4848 15.2691 20.8818 15.3059 18.2403 17.9711ZM68.003 18.665C68.003 18.7211 67.1523 19.6738 66.1125 20.782L64.2221 22.7972V25.0533V27.3095L66.3604 29.467L68.4986 31.6245H70.7334H72.9683L75.167 29.4762L77.3658 27.328L77.1822 29.2604C76.6409 34.9499 72.2221 38.4565 66.1328 38.0285L63.0091 37.8089L50.3354 50.4999C39.0811 61.7692 37.6894 63.2806 37.9121 63.9917C39.8734 70.26 35.271 76.9948 29.0261 76.9948H27.6365L29.7747 74.8373L31.913 72.6798V70.4834V68.2875L29.7362 66.1104L27.5591 63.9336H25.1913H22.8231L20.6467 66.0818L18.4706 68.2301L18.7037 66.3396C19.4176 60.5484 23.6762 57.1195 29.6616 57.5168L32.7722 57.7234L45.3732 45.1359L57.9737 32.5487L57.785 29.3858C57.4949 24.5202 59.3101 21.2577 63.3556 19.3738C64.7428 18.7276 68.003 18.2306 68.003 18.665ZM24.3035 20.6789C28.395 23.1203 28.4758 23.2055 28.4758 25.0585V26.6351L36.3933 34.5581L44.3107 42.481L43.4274 43.3107L42.544 44.1405L34.562 36.1639L26.5799 28.1873H24.9734H23.3665L21.1327 24.4924L18.8985 20.7974L19.7987 19.8522C20.9605 18.6324 20.8357 18.6097 24.3035 20.6789ZM58.4477 35.4741C57.4702 36.4516 58.4264 38.0608 59.7373 37.6446C60.2278 37.4889 60.4413 37.127 60.4413 36.4502C60.4413 35.1929 59.2915 34.6302 58.4477 35.4741ZM47.0835 46.8823C38.1899 55.756 37.7967 56.3107 40.1563 56.6596C41.2008 56.8139 56.9948 41.1663 57.0003 39.9716C57.0134 37.2902 55.9651 38.0206 47.0835 46.8823ZM56.1589 50.5446C56.7869 51.2382 56.7608 51.2822 54.1619 53.881L51.5287 56.5142L50.6481 55.6872L49.7675 54.8599L52.2602 52.3508C54.9789 49.6138 55.2168 49.5035 56.1589 50.5446ZM74.6112 67.6296C78.8317 71.694 77.6837 76.9948 72.583 76.9948C70.0553 76.9948 68.3391 75.3766 54.5005 59.9469L53.237 58.538L56.0238 55.7584L58.811 52.9791L65.555 59.191C69.2644 62.6079 73.3398 66.4053 74.6112 67.6296ZM35.7626 58.1592C35.1439 58.7779 35.2652 59.7396 36.0128 60.1394C36.9948 60.6652 37.7561 60.2208 37.7561 59.1216C37.7561 57.8777 36.6016 57.3202 35.7626 58.1592ZM59.4789 59.1904C58.6295 60.0397 59.2094 60.8185 64.9989 66.6012C71.0005 72.5952 72.152 73.3865 72.639 71.8521C72.9669 70.8186 72.5902 70.3556 66.5446 64.3633C61.0111 58.8783 60.3065 58.3627 59.4789 59.1904Z" fill="black"/>
</svg>
